<svg width="37" height="29" viewBox="0 0 37 29" fill="none" xmlns="http://www.w3.org/2000/svg">
<path d="M0 29V0.264159H2.47317V29H0ZM7.30357 0.224903V7.40886H12.0536V9.88203H7.30357V26.5268H9.61971V12.1982H12.0536V29H4.8304V0.224903H7.30357ZM21.6378 5.09272H19.2038V2.69807H16.8877V7.40886H19.2038H19.2824H21.6378V29H14.4145V12.1982H16.8877V26.5268H19.2038V9.88203H14.4145V0.224903H21.6378V5.09272Z" fill="white"/>
<path d="M23.9987 29V0.224903H31.2611V29H28.8272H28.788V12.2374H26.4718V29H23.9987ZM28.788 2.69807H26.4718V9.80352H28.788V2.69807ZM33.6211 29V0.264159H36.0943V29H33.6211Z" fill="#A6FF7E"/>
</svg>
