<?xml version="1.0" encoding="utf-8"?>
<!-- Generator: Adobe Illustrator 24.0.1, SVG Export Plug-In . SVG Version: 6.00 Build 0)  -->
<svg version="1.1" id="Слой_1" xmlns="http://www.w3.org/2000/svg" xmlns:xlink="http://www.w3.org/1999/xlink" x="0px" y="0px"
	 viewBox="0 0 966 93" style="enable-background:new 0 0 966 93;" xml:space="preserve">
<path d="M672.1,14.4c-20.2-4.7-64.2-10.2-85.1-12.6c-21.6-2.5-36.7,4.4-42.5,8.3C533,19,529.1,30,526.2,35
	c-17.7,30.4-27.9,31.2-33.7,32.5c-3.2,0.7-9.5,0.8-9.5,0.8c-3.1,0-6.3-0.3-9.5-1c-5.9-1.3-16-2.1-33.7-32.5c-2.9-5-6.7-16-18.3-24.9
	c-5.8-3.9-20.9-10.8-42.5-8.3c-20.8,2.4-64.9,7.9-85.1,12.6C191.2,28.7-5.8,63.5,1.2,90.9c0.2,0.7,0.4,1.3,0.7,1.9H483V93h481.1
	c0.3-0.6,0.6-1.3,0.7-1.9C971.8,63.6,774.8,28.9,672.1,14.4z"/>
</svg>
