<svg width="20" height="24" viewBox="0 0 20 24" fill="none" xmlns="http://www.w3.org/2000/svg">
<path opacity="0.7" fill-rule="evenodd" clip-rule="evenodd" d="M4.03605 8.675e-07H11.7053C12.1827 -1.71211e-05 12.5945 -3.27155e-05 12.9325 0.0305962C13.2898 0.0629852 13.6437 0.134697 13.9772 0.327251C14.3485 0.541636 14.6569 0.849987 14.8713 1.22131C15.0638 1.55482 15.1355 1.90868 15.1679 2.26605C15.1804 2.40336 15.1878 2.55287 15.1921 2.71402L15.5448 2.71402C16.0055 2.71402 16.3901 2.71401 16.7062 2.73462C17.0351 2.75606 17.3462 2.80226 17.6492 2.92156C18.4199 3.22501 19.03 3.83503 19.3334 4.60578C19.4527 4.90881 19.4989 5.21986 19.5204 5.54876C19.541 5.86484 19.541 6.24947 19.541 6.7102V6.73632C19.541 6.7805 19.541 6.82409 19.541 6.86711C19.5416 7.58138 19.5421 8.13771 19.3705 8.62349C19.1215 9.32868 18.6168 9.91471 17.9563 10.2656C17.5014 10.5074 16.9512 10.5894 16.2447 10.6948C16.2021 10.7011 16.159 10.7076 16.1153 10.7141L11.6897 11.3779C10.7867 11.5134 10.1849 11.6052 9.73888 11.7306C9.31485 11.8498 9.13245 11.9738 9.01362 12.1118C8.87334 12.2747 8.77853 12.5028 8.72855 13.038C8.88631 13.0449 9.03438 13.056 9.17036 13.0743C9.55627 13.1262 9.96416 13.2483 10.2996 13.5838C10.6351 13.9192 10.7572 14.3271 10.8091 14.713C10.8562 15.0635 10.8561 15.4943 10.8561 15.9642V20.4037C10.8561 20.8736 10.8562 21.3044 10.8091 21.6549C10.7572 22.0408 10.6351 22.4487 10.2996 22.7841C9.96416 23.1196 9.55627 23.2417 9.17036 23.2936C8.81991 23.3407 8.38911 23.3406 7.91924 23.3406H7.82209C7.35222 23.3406 6.92141 23.3407 6.57096 23.2936C6.18505 23.2417 5.77716 23.1196 5.44168 22.7841C5.1062 22.4487 4.98413 22.0408 4.93224 21.6549C4.88513 21.3044 4.88518 20.8736 4.88523 20.4037V15.9641C4.88518 15.4943 4.88513 15.0635 4.93224 14.713C4.98413 14.3271 5.1062 13.9192 5.44168 13.5838C5.77716 13.2483 6.18505 13.1262 6.57096 13.0743C6.72973 13.053 6.90499 13.0413 7.0929 13.0349C7.14962 12.2709 7.30673 11.5984 7.7797 11.0492C8.18687 10.5764 8.70852 10.3288 9.29808 10.163C9.85443 10.0066 10.5586 9.90096 11.3974 9.77517L15.8738 9.10371C16.7727 8.96887 17.0173 8.92056 17.1923 8.8276C17.4925 8.6681 17.7219 8.40172 17.8351 8.08118C17.9011 7.89438 17.9125 7.64532 17.9125 6.73632C17.9125 6.24272 17.9121 5.91147 17.8954 5.6547C17.8791 5.40479 17.8498 5.28267 17.8182 5.20233C17.6803 4.85199 17.403 4.5747 17.0527 4.43677C16.9723 4.40514 16.8502 4.37587 16.6003 4.35958C16.3435 4.34284 16.0123 4.34244 15.5187 4.34244H15.1921C15.1878 4.50359 15.1804 4.6531 15.1679 4.79041C15.1355 5.14778 15.0638 5.50164 14.8713 5.83515C14.6569 6.20647 14.3485 6.51482 13.9772 6.72921C13.6437 6.92176 13.2898 6.99347 12.9325 7.02586C12.5945 7.05649 12.1827 7.05648 11.7053 7.05646H4.03605C3.55861 7.05648 3.14679 7.05649 2.80885 7.02586C2.45149 6.99347 2.09763 6.92176 1.76411 6.72921C1.39279 6.51482 1.08444 6.20647 0.870053 5.83515C0.677499 5.50164 0.605788 5.14778 0.573399 4.79041C0.559816 4.64054 0.55226 4.47615 0.548058 4.29794C0.229081 4.18767 0 3.8847 0 3.52823C0 3.17176 0.229081 2.86879 0.548057 2.75852C0.552259 2.58031 0.559816 2.41592 0.573399 2.26605C0.605788 1.90868 0.677499 1.55482 0.870053 1.22131C1.08444 0.849987 1.39279 0.541635 1.76411 0.327251C2.09763 0.134697 2.45149 0.0629852 2.80885 0.0305962C3.14679 -3.27155e-05 3.55861 -1.71211e-05 4.03605 8.675e-07ZM7.87576 14.6557H7.87066C7.33588 14.6557 7.01671 14.6574 6.78794 14.6882C6.68312 14.7023 6.63062 14.7189 6.60697 14.7286C6.6015 14.7309 6.5979 14.7326 6.5958 14.7337L6.59316 14.7352L6.59166 14.7379C6.59057 14.74 6.58881 14.7436 6.58656 14.749C6.57683 14.7727 6.56023 14.8252 6.54614 14.93C6.51538 15.1588 6.51365 15.478 6.51365 16.0127V20.3552C6.51365 20.8899 6.51538 21.2091 6.54614 21.4379C6.56023 21.5427 6.57683 21.5952 6.58656 21.6189C6.58881 21.6243 6.59057 21.6279 6.59166 21.63L6.59314 21.6327L6.5958 21.6342C6.5979 21.6353 6.6015 21.637 6.60697 21.6393C6.63062 21.649 6.68312 21.6656 6.78794 21.6797C7.01671 21.7104 7.33588 21.7122 7.87066 21.7122C8.40544 21.7122 8.72462 21.7104 8.95338 21.6797C9.0582 21.6656 9.11071 21.649 9.13435 21.6393C9.13822 21.6377 9.14116 21.6363 9.14328 21.6353L9.14552 21.6342L9.14818 21.6327L9.14966 21.63C9.15076 21.6279 9.15251 21.6243 9.15477 21.6189C9.16449 21.5952 9.18109 21.5427 9.19519 21.4379C9.22594 21.2091 9.22767 20.8899 9.22767 20.3552V16.0127C9.22767 15.478 9.22594 15.1588 9.19519 14.93C9.18109 14.8252 9.16449 14.7727 9.15477 14.749C9.15251 14.7436 9.15076 14.74 9.14966 14.7379L9.14817 14.7352L9.14552 14.7337C9.14552 14.7337 9.14215 14.732 9.13939 14.7308C9.13939 14.7308 9.13625 14.7294 9.13435 14.7286C9.1107 14.7189 9.0582 14.7023 8.95338 14.6882C8.72534 14.6575 8.40747 14.6557 7.87576 14.6557ZM2.95584 1.65236C2.71142 1.67451 2.62268 1.71189 2.57832 1.7375C2.45455 1.80896 2.35176 1.91174 2.2803 2.03552C2.25469 2.07988 2.21732 2.16861 2.19516 2.41303C2.172 2.66865 2.17122 3.00593 2.17122 3.52823C2.17122 4.05053 2.172 4.38781 2.19516 4.64343C2.21732 4.88785 2.25469 4.97658 2.2803 5.02094C2.35176 5.14472 2.45455 5.2475 2.57832 5.31896C2.62268 5.34457 2.71142 5.38195 2.95584 5.4041C3.21145 5.42727 3.54873 5.42805 4.07103 5.42805H11.6703C12.1926 5.42805 12.5299 5.42727 12.7855 5.4041C13.0299 5.38195 13.1186 5.34457 13.163 5.31896C13.2868 5.2475 13.3896 5.14472 13.461 5.02094C13.4866 4.97658 13.524 4.88785 13.5462 4.64343C13.5693 4.38781 13.5701 4.05053 13.5701 3.52823C13.5701 3.00593 13.5693 2.66865 13.5462 2.41303C13.524 2.16861 13.4866 2.07988 13.461 2.03552C13.3896 1.91174 13.2868 1.80896 13.163 1.7375C13.1186 1.71189 13.0299 1.67451 12.7855 1.65236C12.5299 1.62919 12.1926 1.62841 11.6703 1.62841H4.07103C3.54873 1.62841 3.21145 1.62919 2.95584 1.65236Z" fill="#B6F09C"/>
</svg>
