<svg width="14" height="17" viewBox="0 0 14 17" fill="none" xmlns="http://www.w3.org/2000/svg">
    <path fill-rule="evenodd" clip-rule="evenodd" d="M12.6002 4.375H1.4002C1.0136 4.375 0.700195 4.6884 0.700195 5.075V14C0.700195 15.1598 1.6404 16.1 2.8002 16.1H11.2002C12.36 16.1 13.3002 15.1598 13.3002 14V5.075C13.3002 4.6884 12.9868 4.375 12.6002 4.375ZM2.10006 5.77513H11.9001V14.0001C11.9001 14.3867 11.5867 14.7001 11.2001 14.7001H2.80006L2.71842 14.6954C2.37029 14.655 2.10006 14.3591 2.10006 14.0001V5.77513Z" fill="#D3D2D3"/>
    <path fill-rule="evenodd" clip-rule="evenodd" d="M8.65216 0C9.19475 0 9.68464 0.312961 9.91544 0.796517L9.96086 0.902695L10.2823 1.75H13.3C13.659 1.75 13.9549 2.02023 13.9953 2.36837L14 2.45C14 2.80899 13.7298 3.10486 13.3816 3.14529L13.3 3.15H9.8C9.5384 3.15 9.30129 3.0045 9.18122 2.77732L9.14565 2.69865L8.65216 1.4H5.34784L4.85435 2.69865C4.76142 2.9432 4.54118 3.11315 4.28617 3.1447L4.2 3.15H0.7C0.313401 3.15 0 2.8366 0 2.45C0 2.09102 0.270228 1.79515 0.618365 1.75471L0.7 1.75H3.717L4.03914 0.902695C4.23188 0.395495 4.69845 0.0487207 5.23245 0.00473834L5.34784 0H8.65216Z" fill="#D3D2D3"/>
    <path fill-rule="evenodd" clip-rule="evenodd" d="M5.27942 7.44721L5.34537 7.50544L7.00014 9.15966L8.65491 7.50544C8.92828 7.23207 9.37149 7.23207 9.64486 7.50544C9.8972 7.75778 9.91661 8.15484 9.70309 8.42944L9.64486 8.49539L7.99064 10.1502L9.64486 11.8049C9.91823 12.0783 9.91823 12.5215 9.64486 12.7949C9.39252 13.0472 8.99546 13.0666 8.72086 12.8531L8.65491 12.7949L7.00014 11.1407L5.34537 12.7949C5.072 13.0683 4.62878 13.0683 4.35542 12.7949C4.10308 12.5425 4.08367 12.1455 4.29718 11.8709L4.35542 11.8049L6.00964 10.1502L4.35542 8.49539C4.08205 8.22202 4.08205 7.77881 4.35542 7.50544C4.58673 7.27413 4.93964 7.23854 5.20837 7.39868L5.27942 7.44721Z" fill="#D3D2D3"/>
    </svg>
