<svg width="1" height="209" viewBox="0 0 1 209" fill="none" xmlns="http://www.w3.org/2000/svg">
<path fill-rule="evenodd" clip-rule="evenodd" d="M-4.39215e-08 1.00481L0 -4.37114e-08L1 0L1 1.00481L-4.39215e-08 1.00481ZM-2.19608e-07 5.02404L-1.31765e-07 3.01442L1 3.01442L1 5.02404L-2.19608e-07 5.02404ZM-3.95294e-07 9.04327L-3.07451e-07 7.03365L1 7.03365L1 9.04327L-3.95294e-07 9.04327ZM-5.7098e-07 13.0625L-4.83137e-07 11.0529L1 11.0529L0.999999 13.0625L-5.7098e-07 13.0625ZM-7.46666e-07 17.0817L-6.58823e-07 15.0721L0.999999 15.0721L0.999999 17.0817L-7.46666e-07 17.0817ZM-9.22352e-07 21.101L-8.34509e-07 19.0913L0.999999 19.0913L0.999999 21.101L-9.22352e-07 21.101ZM-1.09804e-06 25.1202L-1.0102e-06 23.1106L0.999999 23.1106L0.999999 25.1202L-1.09804e-06 25.1202ZM-1.27372e-06 29.1394L-1.18588e-06 27.1298L0.999999 27.1298L0.999999 29.1394L-1.27372e-06 29.1394ZM-1.44941e-06 33.1586L-1.36157e-06 31.149L0.999999 31.149L0.999999 33.1586L-1.44941e-06 33.1586ZM-1.6251e-06 37.1779L-1.53725e-06 35.1683L0.999998 35.1683L0.999998 37.1779L-1.6251e-06 37.1779ZM-1.80078e-06 41.1971L-1.71294e-06 39.1875L0.999998 39.1875L0.999998 41.1971L-1.80078e-06 41.1971ZM-1.97647e-06 45.2164L-1.88863e-06 43.2067L0.999998 43.2067L0.999998 45.2164L-1.97647e-06 45.2164ZM-2.15216e-06 49.2356L-2.06431e-06 47.226L0.999998 47.226L0.999998 49.2356L-2.15216e-06 49.2356ZM-2.32784e-06 53.2548L-2.24e-06 51.2452L0.999998 51.2452L0.999998 53.2548L-2.32784e-06 53.2548ZM-2.50353e-06 57.2741L-2.41569e-06 55.2644L0.999998 55.2644L0.999997 57.2741L-2.50353e-06 57.2741ZM-2.67921e-06 61.2933L-2.59137e-06 59.2837L0.999997 59.2837L0.999997 61.2933L-2.67921e-06 61.2933ZM-2.8549e-06 65.3125L-2.76706e-06 63.3029L0.999997 63.3029L0.999997 65.3125L-2.8549e-06 65.3125ZM-3.03059e-06 69.3317L-2.94274e-06 67.3221L0.999997 67.3221L0.999997 69.3317L-3.03059e-06 69.3317ZM-3.20627e-06 73.351L-3.11843e-06 71.3414L0.999997 71.3414L0.999997 73.351L-3.20627e-06 73.351ZM-3.38196e-06 77.3702L-3.29412e-06 75.3606L0.999997 75.3606L0.999997 77.3702L-3.38196e-06 77.3702ZM-3.55764e-06 81.3894L-3.4698e-06 79.3798L0.999997 79.3798L0.999996 81.3894L-3.55764e-06 81.3894ZM-3.73333e-06 85.4086L-3.64549e-06 83.399L0.999996 83.399L0.999996 85.4086L-3.73333e-06 85.4086ZM-3.90902e-06 89.4279L-3.82117e-06 87.4183L0.999996 87.4183L0.999996 89.4279L-3.90902e-06 89.4279ZM-4.0847e-06 93.4471L-3.99686e-06 91.4375L0.999996 91.4375L0.999996 93.4471L-4.0847e-06 93.4471ZM-4.26039e-06 97.4663L-4.17255e-06 95.4567L0.999996 95.4567L0.999996 97.4663L-4.26039e-06 97.4663ZM-4.43607e-06 101.486L-4.34823e-06 99.4759L0.999996 99.4759L0.999996 101.486L-4.43607e-06 101.486ZM-4.61176e-06 105.505L-4.52392e-06 103.495L0.999995 103.495L0.999995 105.505L-4.61176e-06 105.505ZM-4.78745e-06 109.524L-4.6996e-06 107.514L0.999995 107.514L0.999995 109.524L-4.78745e-06 109.524ZM-4.96313e-06 113.543L-4.87529e-06 111.534L0.999995 111.534L0.999995 113.543L-4.96313e-06 113.543ZM-5.13882e-06 117.562L-5.05098e-06 115.553L0.999995 115.553L0.999995 117.562L-5.13882e-06 117.562ZM-5.3145e-06 121.582L-5.22666e-06 119.572L0.999995 119.572L0.999995 121.582L-5.3145e-06 121.582ZM-5.49019e-06 125.601L-5.40235e-06 123.591L0.999995 123.591L0.999995 125.601L-5.49019e-06 125.601ZM-5.66588e-06 129.62L-5.57803e-06 127.611L0.999994 127.611L0.999994 129.62L-5.66588e-06 129.62ZM-5.84156e-06 133.639L-5.75372e-06 131.63L0.999994 131.63L0.999994 133.639L-5.84156e-06 133.639ZM-6.01725e-06 137.659L-5.9294e-06 135.649L0.999994 135.649L0.999994 137.659L-6.01725e-06 137.659ZM-6.19293e-06 141.678L-6.10509e-06 139.668L0.999994 139.668L0.999994 141.678L-6.19293e-06 141.678ZM-6.36862e-06 145.697L-6.28078e-06 143.687L0.999994 143.687L0.999994 145.697L-6.36862e-06 145.697ZM-6.54431e-06 149.716L-6.45646e-06 147.707L0.999994 147.707L0.999993 149.716L-6.54431e-06 149.716ZM-6.71999e-06 153.735L-6.63215e-06 151.726L0.999993 151.726L0.999993 153.735L-6.71999e-06 153.735ZM-6.89568e-06 157.755L-6.80783e-06 155.745L0.999993 155.745L0.999993 157.755L-6.89568e-06 157.755ZM-7.07136e-06 161.774L-6.98352e-06 159.764L0.999993 159.764L0.999993 161.774L-7.07136e-06 161.774ZM-7.24705e-06 165.793L-7.15921e-06 163.784L0.999993 163.784L0.999993 165.793L-7.24705e-06 165.793ZM-7.42274e-06 169.812L-7.33489e-06 167.803L0.999993 167.803L0.999993 169.812L-7.42274e-06 169.812ZM-7.59842e-06 173.832L-7.51058e-06 171.822L0.999992 171.822L0.999992 173.832L-7.59842e-06 173.832ZM-7.77411e-06 177.851L-7.68626e-06 175.841L0.999992 175.841L0.999992 177.851L-7.77411e-06 177.851ZM-7.94979e-06 181.87L-7.86195e-06 179.86L0.999992 179.86L0.999992 181.87L-7.94979e-06 181.87ZM-8.12548e-06 185.889L-8.03764e-06 183.88L0.999992 183.88L0.999992 185.889L-8.12548e-06 185.889ZM-8.30117e-06 189.909L-8.21332e-06 187.899L0.999992 187.899L0.999992 189.909L-8.30117e-06 189.909ZM-8.47685e-06 193.928L-8.38901e-06 191.918L0.999992 191.918L0.999992 193.928L-8.47685e-06 193.928ZM-8.65254e-06 197.947L-8.56469e-06 195.937L0.999991 195.937L0.999991 197.947L-8.65254e-06 197.947ZM-8.82822e-06 201.966L-8.74038e-06 199.957L0.999991 199.957L0.999991 201.966L-8.82822e-06 201.966ZM-9.00391e-06 205.985L-8.91607e-06 203.976L0.999991 203.976L0.999991 205.985L-9.00391e-06 205.985ZM-9.13568e-06 209L-9.09175e-06 207.995L0.999991 207.995L0.999991 209L-9.13568e-06 209Z" fill="#B6F09C"/>
</svg>
