<svg width="22" height="22" viewBox="0 0 22 22" fill="none" xmlns="http://www.w3.org/2000/svg">
<path d="M11 5.65116C11.3853 5.65116 11.6977 5.96352 11.6977 6.34884V11.1761L13.2974 9.57644C13.5698 9.30398 14.0116 9.30398 14.284 9.57644C14.5565 9.8489 14.5565 10.2906 14.284 10.5631L11.4933 13.3538C11.3625 13.4846 11.185 13.5581 11 13.5581C10.815 13.5581 10.6375 13.4846 10.5067 13.3538L7.71597 10.5631C7.44351 10.2906 7.44351 9.8489 7.71597 9.57644C7.98843 9.30398 8.43017 9.30398 8.70263 9.57644L10.3023 11.1761V6.34884C10.3023 5.96352 10.6147 5.65116 11 5.65116Z" fill="#B6F09C"/>
<path d="M6.5814 15.6512C6.5814 15.2658 6.89375 14.9535 7.27907 14.9535H14.7209C15.1062 14.9535 15.4186 15.2658 15.4186 15.6512C15.4186 16.0365 15.1062 16.3488 14.7209 16.3488H7.27907C6.89375 16.3488 6.5814 16.0365 6.5814 15.6512Z" fill="#B6F09C"/>
<path fill-rule="evenodd" clip-rule="evenodd" d="M10.9466 1C8.79928 0.999988 7.11646 0.999979 5.80345 1.17651C4.45951 1.3572 3.39902 1.73426 2.56664 2.56664C1.73426 3.39902 1.3572 4.45951 1.17651 5.80345C0.999979 7.11646 0.999988 8.79928 1 10.9466V11.0534C0.999988 13.2007 0.999979 14.8835 1.17651 16.1966C1.3572 17.5405 1.73426 18.601 2.56664 19.4334C3.39902 20.2657 4.45951 20.6428 5.80345 20.8235C7.11646 21 8.79929 21 10.9466 21H11.0534C13.2007 21 14.8835 21 16.1966 20.8235C17.5405 20.6428 18.601 20.2657 19.4334 19.4334C20.2657 18.601 20.6428 17.5405 20.8235 16.1966C21 14.8835 21 13.2007 21 11.0534V10.9466C21 8.79929 21 7.11646 20.8235 5.80345C20.6428 4.45951 20.2657 3.39902 19.4334 2.56664C18.601 1.73426 17.5405 1.3572 16.1966 1.17651C14.8835 0.999979 13.2007 0.999988 11.0534 1H10.9466ZM3.5533 3.5533C4.08321 3.02339 4.80016 2.7193 5.98937 2.55941C7.19866 2.39683 8.7877 2.39535 11 2.39535C13.2123 2.39535 14.8013 2.39683 16.0106 2.55941C17.1998 2.7193 17.9168 3.02339 18.4467 3.5533C18.9766 4.08321 19.2807 4.80016 19.4406 5.98937C19.6032 7.19866 19.6047 8.7877 19.6047 11C19.6047 13.2123 19.6032 14.8013 19.4406 16.0106C19.2807 17.1998 18.9766 17.9168 18.4467 18.4467C17.9168 18.9766 17.1998 19.2807 16.0106 19.4406C14.8013 19.6032 13.2123 19.6047 11 19.6047C8.7877 19.6047 7.19866 19.6032 5.98937 19.4406C4.80016 19.2807 4.08321 18.9766 3.5533 18.4467C3.02339 17.9168 2.7193 17.1998 2.55941 16.0106C2.39683 14.8013 2.39535 13.2123 2.39535 11C2.39535 8.7877 2.39683 7.19866 2.55941 5.98937C2.7193 4.80016 3.02339 4.08321 3.5533 3.5533Z" fill="#B6F09C"/>
<path d="M11 5.65116C11.3853 5.65116 11.6977 5.96352 11.6977 6.34884V11.1761L13.2974 9.57644C13.5698 9.30398 14.0116 9.30398 14.284 9.57644C14.5565 9.8489 14.5565 10.2906 14.284 10.5631L11.4933 13.3538C11.3625 13.4846 11.185 13.5581 11 13.5581C10.815 13.5581 10.6375 13.4846 10.5067 13.3538L7.71597 10.5631C7.44351 10.2906 7.44351 9.8489 7.71597 9.57644C7.98843 9.30398 8.43017 9.30398 8.70263 9.57644L10.3023 11.1761V6.34884C10.3023 5.96352 10.6147 5.65116 11 5.65116Z" stroke="#B6F09C" stroke-width="0.271012"/>
<path d="M6.5814 15.6512C6.5814 15.2658 6.89375 14.9535 7.27907 14.9535H14.7209C15.1062 14.9535 15.4186 15.2658 15.4186 15.6512C15.4186 16.0365 15.1062 16.3488 14.7209 16.3488H7.27907C6.89375 16.3488 6.5814 16.0365 6.5814 15.6512Z" stroke="#B6F09C" stroke-width="0.271012"/>
<path fill-rule="evenodd" clip-rule="evenodd" d="M10.9466 1C8.79928 0.999988 7.11646 0.999979 5.80345 1.17651C4.45951 1.3572 3.39902 1.73426 2.56664 2.56664C1.73426 3.39902 1.3572 4.45951 1.17651 5.80345C0.999979 7.11646 0.999988 8.79928 1 10.9466V11.0534C0.999988 13.2007 0.999979 14.8835 1.17651 16.1966C1.3572 17.5405 1.73426 18.601 2.56664 19.4334C3.39902 20.2657 4.45951 20.6428 5.80345 20.8235C7.11646 21 8.79929 21 10.9466 21H11.0534C13.2007 21 14.8835 21 16.1966 20.8235C17.5405 20.6428 18.601 20.2657 19.4334 19.4334C20.2657 18.601 20.6428 17.5405 20.8235 16.1966C21 14.8835 21 13.2007 21 11.0534V10.9466C21 8.79929 21 7.11646 20.8235 5.80345C20.6428 4.45951 20.2657 3.39902 19.4334 2.56664C18.601 1.73426 17.5405 1.3572 16.1966 1.17651C14.8835 0.999979 13.2007 0.999988 11.0534 1H10.9466ZM3.5533 3.5533C4.08321 3.02339 4.80016 2.7193 5.98937 2.55941C7.19866 2.39683 8.7877 2.39535 11 2.39535C13.2123 2.39535 14.8013 2.39683 16.0106 2.55941C17.1998 2.7193 17.9168 3.02339 18.4467 3.5533C18.9766 4.08321 19.2807 4.80016 19.4406 5.98937C19.6032 7.19866 19.6047 8.7877 19.6047 11C19.6047 13.2123 19.6032 14.8013 19.4406 16.0106C19.2807 17.1998 18.9766 17.9168 18.4467 18.4467C17.9168 18.9766 17.1998 19.2807 16.0106 19.4406C14.8013 19.6032 13.2123 19.6047 11 19.6047C8.7877 19.6047 7.19866 19.6032 5.98937 19.4406C4.80016 19.2807 4.08321 18.9766 3.5533 18.4467C3.02339 17.9168 2.7193 17.1998 2.55941 16.0106C2.39683 14.8013 2.39535 13.2123 2.39535 11C2.39535 8.7877 2.39683 7.19866 2.55941 5.98937C2.7193 4.80016 3.02339 4.08321 3.5533 3.5533Z" stroke="#B6F09C" stroke-width="0.271012"/>
</svg>
