<svg width="17" height="17" viewBox="0 0 17 17" fill="none" xmlns="http://www.w3.org/2000/svg">
<path fill-rule="evenodd" clip-rule="evenodd" d="M10.0455 0C10.4722 0 10.8182 0.345962 10.8182 0.772727C10.8182 1.16901 10.5199 1.49562 10.1356 1.54026L10.0455 1.54545H3.09091C2.27618 1.54545 1.60869 2.17591 1.54969 2.97557L1.54545 3.09091V9.27273C1.54545 9.69949 1.19949 10.0455 0.772727 10.0455C0.376445 10.0455 0.0498354 9.74715 0.0051987 9.36284L0 9.27273V3.09091C0 1.43558 1.30125 0.0841663 2.93664 0.00378274L3.09091 0H10.0455Z" fill="#D3D2D3"/>
<path fill-rule="evenodd" clip-rule="evenodd" d="M13.909 2.31824H4.6363C3.356 2.31824 2.31812 3.35612 2.31812 4.63642V14.6819C2.31812 15.9622 3.356 17.0001 4.6363 17.0001H13.909C15.1893 17.0001 16.2272 15.9622 16.2272 14.6819V4.63642C16.2272 3.35612 15.1893 2.31824 13.909 2.31824ZM4.63636 3.86364H13.9091C14.3359 3.86364 14.6818 4.2096 14.6818 4.63636V14.6818C14.6818 15.1086 14.3359 15.4545 13.9091 15.4545H4.63636C4.2096 15.4545 3.86364 15.1086 3.86364 14.6818V4.63636C3.86364 4.2096 4.2096 3.86364 4.63636 3.86364Z" fill="#D3D2D3"/>
<path fill-rule="evenodd" clip-rule="evenodd" d="M12.3637 7.72729C12.7905 7.72729 13.1365 8.07326 13.1365 8.50002C13.1365 8.8963 12.8381 9.22291 12.4538 9.26755L12.3637 9.27275H6.18191C5.75514 9.27275 5.40918 8.92679 5.40918 8.50002C5.40918 8.10374 5.70748 7.77713 6.09179 7.73249L6.18191 7.72729H12.3637Z" fill="#D3D2D3"/>
<path fill-rule="evenodd" clip-rule="evenodd" d="M9.27282 10.8182C9.69958 10.8182 10.0455 11.1642 10.0455 11.591C10.0455 11.9872 9.74724 12.3139 9.36293 12.3585L9.27282 12.3637H6.18191C5.75514 12.3637 5.40918 12.0177 5.40918 11.591C5.40918 11.1947 5.70748 10.8681 6.09179 10.8234L6.18191 10.8182H9.27282Z" fill="#D3D2D3"/>
</svg>
