<svg width="46" height="55" viewBox="0 0 46 55" fill="none" xmlns="http://www.w3.org/2000/svg">
<g clip-path="url(#clip0_1901_5475)">
<path d="M18.7409 16.3281C16.8583 16.3281 15.3335 17.8664 15.3335 19.7656C15.3335 21.6648 16.8583 23.2031 18.7409 23.2031C20.6235 23.2031 22.1483 21.6648 22.1483 19.7656C22.1483 17.8664 20.6235 16.3281 18.7409 16.3281ZM18.7409 21.4844C17.8039 21.4844 17.0372 20.7109 17.0372 19.7656C17.0372 18.8203 17.8039 18.0469 18.7409 18.0469C19.6779 18.0469 20.4446 18.8203 20.4446 19.7656C20.4446 20.7109 19.6779 21.4844 18.7409 21.4844Z" fill="#A6FF7E"/>
<path d="M29.8149 18.9062H26.4075C25.939 18.9062 25.5557 19.293 25.5557 19.7656C25.5557 20.2383 25.939 20.625 26.4075 20.625H29.8149C30.2834 20.625 30.6668 20.2383 30.6668 19.7656C30.6668 19.293 30.2834 18.9062 29.8149 18.9062Z" fill="#A6FF7E"/>
<path d="M20.4445 48.125C19.976 48.125 19.5926 48.5117 19.5926 48.9844V51.5625C19.5926 52.5078 18.826 53.2812 17.8889 53.2812V48.9844C17.8889 48.5117 17.5056 48.125 17.0371 48.125C16.5686 48.125 16.1852 48.5117 16.1852 48.9844V53.2812C15.2482 53.2812 14.4815 52.5078 14.4815 51.5625V48.9844C14.4815 48.5117 14.0982 48.125 13.6297 48.125C13.1612 48.125 12.7778 48.5117 12.7778 48.9844V51.5625C12.7778 53.4617 14.3026 55 16.1852 55H17.8889C19.7715 55 21.2964 53.4617 21.2964 51.5625V48.9844C21.2964 48.5117 20.913 48.125 20.4445 48.125Z" fill="#A6FF7E"/>
<path d="M32.3703 48.125C31.9018 48.125 31.5184 48.5117 31.5184 48.9844V51.5625C31.5184 52.5078 30.7518 53.2812 29.8147 53.2812V48.9844C29.8147 48.5117 29.4314 48.125 28.9629 48.125C28.4944 48.125 28.111 48.5117 28.111 48.9844V53.2812C27.174 53.2812 26.4073 52.5078 26.4073 51.5625V48.9844C26.4073 48.5117 26.024 48.125 25.5555 48.125C25.0869 48.125 24.7036 48.5117 24.7036 48.9844V51.5625C24.7036 53.4617 26.2284 55 28.111 55H29.8147C31.6973 55 33.2221 53.4617 33.2221 51.5625V48.9844C33.2221 48.5117 32.8388 48.125 32.3703 48.125Z" fill="#A6FF7E"/>
<path d="M14.4812 42.9688H21.2961C21.7646 42.9688 22.1479 42.582 22.1479 42.1094V28.3594C22.1479 27.8867 21.7646 27.5 21.2961 27.5H14.4812C14.0127 27.5 13.6294 27.8867 13.6294 28.3594V42.1094C13.6294 42.582 14.0127 42.9688 14.4812 42.9688ZM15.3331 29.2188H20.4442V41.25H15.3331V29.2188Z" fill="#A6FF7E"/>
<path d="M26.4075 42.9688H31.5186C31.9871 42.9688 32.3705 42.582 32.3705 42.1094V38.6719C32.3705 38.1992 31.9871 37.8125 31.5186 37.8125H26.4075C25.939 37.8125 25.5557 38.1992 25.5557 38.6719V42.1094C25.5557 42.582 25.939 42.9688 26.4075 42.9688ZM27.2594 39.5312H30.6668V41.25H27.2594V39.5312Z" fill="#A6FF7E"/>
<path d="M32.3705 27.5H25.5557V29.2188H32.3705V27.5Z" fill="#A6FF7E"/>
<path d="M32.3705 30.9375H25.5557V32.6562H32.3705V30.9375Z" fill="#A6FF7E"/>
<path d="M32.3705 34.375H25.5557V36.0938H32.3705V34.375Z" fill="#A6FF7E"/>
<path d="M42.4478 36.2828C41.9878 34.5469 40.1393 28.6945 35.7778 26.1508V24.9219C35.7778 17.8148 30.0448 12.0312 23 12.0312C15.9552 12.0312 10.2222 17.8148 10.2222 24.9219V26.1508C5.86074 28.6945 4.01222 34.5469 3.55222 36.2828C2.46185 36.6695 0 37.8383 0 40.3906C0 42.2898 0.902963 44.1375 0.945556 44.2148C1.09037 44.5156 1.39704 44.6875 1.7037 44.6875C1.83148 44.6875 1.95926 44.6617 2.08704 44.6016C2.50444 44.3867 2.68333 43.8711 2.47037 43.45C2.47037 43.4328 1.7037 41.8859 1.7037 40.3992C1.7037 38.9125 3.37333 38.1734 4.12296 37.907C4.48926 38.2164 5.11111 38.9641 5.11111 40.3992C5.11111 41.7055 4.52333 42.35 4.5063 42.3672C4.17407 42.7023 4.17407 43.2437 4.5063 43.5789C4.83852 43.9141 5.37519 43.9141 5.70741 43.5789C5.81815 43.4672 6.8063 42.4102 6.8063 40.3906C6.8063 38.3711 5.86926 37.1594 5.22185 36.6008C5.64778 35.0711 7.12148 30.5852 10.2137 28.2047V45.5469C10.2137 46.0195 10.597 46.4062 11.0656 46.4062H34.9174C35.3859 46.4062 35.7693 46.0195 35.7693 45.5469V28.2047C38.8615 30.5852 40.3352 35.0711 40.7611 36.6008C40.1137 37.1594 39.1767 38.3281 39.1767 40.3906C39.1767 42.4531 40.1648 43.4586 40.2756 43.5789C40.6078 43.9141 41.1274 43.9055 41.4681 43.5789C41.8004 43.2523 41.8089 42.7109 41.4937 42.3672C41.4681 42.3414 40.8804 41.6883 40.8804 40.3906C40.8804 38.9555 41.5107 38.2078 41.8685 37.8984C42.6096 38.1648 44.2878 38.9297 44.2878 40.3906C44.2878 41.8516 43.5296 43.4328 43.5211 43.4414C43.3081 43.8625 43.487 44.3781 43.9044 44.593C44.0237 44.6531 44.16 44.6789 44.2878 44.6789C44.603 44.6789 44.9011 44.507 45.0459 44.2062C45.08 44.1289 45.9915 42.2813 45.9915 40.382C45.9915 37.8211 43.5296 36.6609 42.4393 36.2742L42.4478 36.2828ZM23 13.75C28.8181 13.75 33.6056 18.3047 34.04 24.0625H11.96C12.3944 18.3047 17.1819 13.75 23 13.75ZM34.0741 44.6875H11.9259V25.7812H34.0741V44.6875Z" fill="#A6FF7E"/>
<path d="M34.0743 10.3125H36.6299V16.3281C36.6299 16.6891 36.8599 17.0156 37.2006 17.1359C37.2943 17.1703 37.388 17.1875 37.4817 17.1875C37.7373 17.1875 37.9843 17.0758 38.1461 16.8609L44.961 8.26719C45.1654 8.00937 45.208 7.65703 45.0632 7.35625C44.9184 7.05547 44.6202 6.86641 44.2965 6.86641H41.741V0.859375C41.741 0.498438 41.511 0.171875 41.1702 0.0515625C41.0765 0.0171875 40.9828 0 40.8891 0C40.6336 0 40.3865 0.111719 40.2247 0.326562L33.4099 8.92031C33.2054 9.17813 33.1628 9.53047 33.3076 9.83125C33.4524 10.132 33.7506 10.3211 34.0743 10.3211V10.3125ZM40.0373 3.30859V7.73438C40.0373 8.20703 40.4206 8.59375 40.8891 8.59375H42.5247L38.3336 13.8789V9.45312C38.3336 8.98047 37.9502 8.59375 37.4817 8.59375H35.8462L40.0373 3.30859Z" fill="#A6FF7E"/>
<path d="M1.70369 10.3125H4.25925V16.3281C4.25925 16.6891 4.48925 17.0156 4.82999 17.1359C4.92369 17.1703 5.0174 17.1875 5.1111 17.1875C5.36665 17.1875 5.61369 17.0758 5.77554 16.8609L12.5904 8.26719C12.7948 8.00937 12.8374 7.65703 12.6926 7.35625C12.5478 7.05547 12.2496 6.86641 11.9259 6.86641H9.37036V0.859375C9.37036 0.498438 9.14036 0.171875 8.79962 0.0515625C8.70591 0.0171875 8.61221 0 8.51851 0C8.26295 0 8.01591 0.111719 7.85406 0.326562L1.03925 8.92031C0.834802 9.17813 0.79221 9.53047 0.937025 9.83125C1.08184 10.132 1.37999 10.3211 1.70369 10.3211V10.3125ZM7.66665 3.30859V7.73438C7.66665 8.20703 8.04999 8.59375 8.51851 8.59375H10.1541L5.96295 13.8789V9.45312C5.96295 8.98047 5.57962 8.59375 5.1111 8.59375H3.47554L7.66665 3.30859Z" fill="#A6FF7E"/>
</g>
<defs>
<clipPath id="clip0_1901_5475">
<rect width="46" height="55" fill="white"/>
</clipPath>
</defs>
</svg>
