<svg width="22" height="16" viewBox="0 0 22 16" fill="none" xmlns="http://www.w3.org/2000/svg">
<g clip-path="url(#clip0_1275_10610)">
<rect width="22" height="16" rx="2" fill="#F93939"/>
<path fill-rule="evenodd" clip-rule="evenodd" d="M0 0H7V16H0V0Z" fill="#249F58"/>
<path d="M7.33329 10.6667C9.06904 10.6667 10.4761 9.23403 10.4761 7.46672C10.4761 5.69941 9.06904 4.26672 7.33329 4.26672C5.59753 4.26672 4.19043 5.69941 4.19043 7.46672C4.19043 9.23403 5.59753 10.6667 7.33329 10.6667Z" fill="#FFDA2C"/>
<path fill-rule="evenodd" clip-rule="evenodd" d="M9.42876 8.53337V5.33337H5.23828V8.53337C5.23828 9.12217 6.1759 9.60004 7.33352 9.60004C8.49114 9.60004 9.42876 9.12217 9.42876 8.53337Z" fill="#F93939"/>
<path fill-rule="evenodd" clip-rule="evenodd" d="M6.28564 6.40002H8.38088V8.53336H6.28564V6.40002Z" fill="white"/>
<path fill-rule="evenodd" clip-rule="evenodd" d="M6.28564 6.40002H7.33326V7.46669H6.28564V6.40002ZM7.33326 7.46669H8.38088V8.53336H7.33326V7.46669Z" fill="#1A47B8"/>
</g>
<defs>
<clipPath id="clip0_1275_10610">
<rect width="22" height="16" fill="white"/>
</clipPath>
</defs>
</svg>
