<svg width="22" height="16" viewBox="0 0 22 16" fill="none" xmlns="http://www.w3.org/2000/svg">
<g clip-path="url(#clip0_2048_7831)">
<rect width="22" height="16" rx="2" fill="white"/>
<rect width="22" height="1.14872" fill="#AF010D"/>
<rect y="2.29749" width="22" height="1.14872" fill="#AF010D"/>
<rect y="4.59485" width="22" height="1.14872" fill="#AF010D"/>
<rect y="6.89233" width="22" height="1.14872" fill="#AF010D"/>
<rect y="9.1897" width="22" height="1.14872" fill="#AF010D"/>
<rect y="11.4872" width="22" height="1.14872" fill="#AF010D"/>
<rect y="13.7847" width="22" height="1.14872" fill="#AF010D"/>
<path fill-rule="evenodd" clip-rule="evenodd" d="M0 0H11.5238V9.19467H0V0Z" fill="#1A47B8"/>
<path fill-rule="evenodd" clip-rule="evenodd" d="M7.3335 4.26672H8.38112V5.33339H7.3335V4.26672Z" fill="#FFDA2C"/>
<path fill-rule="evenodd" clip-rule="evenodd" d="M7.85735 6.39997C7.37964 7.04743 6.61907 7.46663 5.76211 7.46663C4.3164 7.46663 3.14307 6.27197 3.14307 4.79997C3.14307 3.32797 4.3164 2.1333 5.76211 2.1333C6.61907 2.1333 7.37964 2.5525 7.85735 3.19997H6.28592C5.4185 3.19997 4.7145 3.91677 4.7145 4.79997C4.7145 5.68317 5.4185 6.39997 6.28592 6.39997H7.85735Z" fill="#FFDA2C"/>
</g>
<defs>
<clipPath id="clip0_2048_7831">
<rect width="22" height="16" fill="white"/>
</clipPath>
</defs>
</svg>
