<svg width="22" height="22" viewBox="0 0 22 22" fill="none" xmlns="http://www.w3.org/2000/svg">
<path d="M16.9721 14.3032L18.5169 9.6687C19.8664 5.6201 20.5412 3.5958 19.4726 2.52724C18.4041 1.45869 16.3798 2.13345 12.3312 3.48299L7.69671 5.02781C4.4291 6.11701 2.79529 6.66161 2.33101 7.46023C1.88934 8.21997 1.88934 9.1583 2.33101 9.91803C2.79529 10.7167 4.4291 11.2613 7.69671 12.3505C8.22138 12.5254 8.48371 12.6128 8.70298 12.7596C8.91549 12.9018 9.09803 13.0844 9.24029 13.2969C9.38708 13.5162 9.47453 13.7785 9.64942 14.3032C10.7386 17.5708 11.2832 19.2046 12.0818 19.6689C12.8416 20.1105 13.7799 20.1105 14.5396 19.6689C15.3383 19.2046 15.8829 17.5708 16.9721 14.3032Z" stroke="#D3D2D3" stroke-width="2.02503"/>
<path d="M14.7908 8.16356C15.0558 7.90142 15.0582 7.47404 14.7961 7.20897C14.5339 6.94391 14.1065 6.94154 13.8415 7.20368L14.7908 8.16356ZM9.79667 13.1026L14.7908 8.16356L13.8415 7.20368L8.84737 12.1427L9.79667 13.1026Z" fill="#D3D2D3"/>
</svg>
