<svg width="26" height="26" viewBox="0 0 26 26" fill="none" xmlns="http://www.w3.org/2000/svg">
<path d="M13 16.25V13M13 13V9.75M13 13H16.25M13 13H9.75M12.9999 22.7499C14.7712 22.7499 16.4323 22.2776 17.8639 21.4519C18.0053 21.3703 18.0761 21.3296 18.1427 21.3112C18.2046 21.2941 18.2599 21.2883 18.3239 21.2927C18.3923 21.2974 18.4629 21.3209 18.6034 21.3677L21.1054 22.2017L21.1074 22.2026C21.6353 22.3786 21.8998 22.4668 22.0756 22.4041C22.2287 22.3495 22.3494 22.2286 22.404 22.0755C22.4666 21.8998 22.3788 21.6362 22.203 21.1091L22.202 21.1058L21.3691 18.6071L21.3671 18.6019C21.3207 18.4626 21.2972 18.3921 21.2925 18.3241C21.2882 18.26 21.294 18.2043 21.3111 18.1424C21.3293 18.0768 21.3693 18.0073 21.4488 17.8696L21.452 17.864C22.2776 16.4324 22.75 14.7714 22.75 13C22.75 7.61522 18.3848 3.25 13 3.25C7.61522 3.25 3.25 7.61522 3.25 13C3.25 18.3848 7.61508 22.7499 12.9999 22.7499Z" stroke="#030104" stroke-width="2.16667" stroke-linecap="round" stroke-linejoin="round"/>
</svg>
