<svg width="26" height="26" viewBox="0 0 26 26" fill="none" xmlns="http://www.w3.org/2000/svg">
<path d="M17.8639 21.4519C16.4323 22.2776 14.7712 22.7499 12.9999 22.7499C7.61508 22.7499 3.25 18.3848 3.25 13C3.25 7.61522 7.61522 3.25 13 3.25C18.3848 3.25 22.75 7.61522 22.75 13C22.75 14.7714 22.2776 16.4324 21.452 17.864L21.4488 17.8696C21.3693 18.0073 21.3293 18.0768 21.3111 18.1424C21.294 18.2043 21.2882 18.26 21.2925 18.3241C21.2972 18.3921 21.3207 18.4626 21.3671 18.6019L21.3691 18.6071L22.202 21.1058L22.203 21.1091C22.3788 21.6362 22.4666 21.8998 22.404 22.0755C22.3494 22.2286 22.2287 22.3495 22.0756 22.4041C21.8998 22.4668 21.6353 22.3786 21.1074 22.2026L21.1054 22.2017L18.6034 21.3677C18.4629 21.3209 18.3923 21.2974 18.3239 21.2927C18.2599 21.2883 18.2046 21.2941 18.1427 21.3112C18.0761 21.3296 18.0053 21.3703 17.8639 21.4519Z" stroke="#030104" stroke-width="2.16667" stroke-linecap="round" stroke-linejoin="round"/>
<mask id="path-2-outside-1_3_1784" maskUnits="userSpaceOnUse" x="7" y="8" width="12" height="11" fill="black">
<rect fill="white" x="7" y="8" width="12" height="11"/>
<path d="M17 12.4131C17 13.6295 15.8277 14.9057 14.7524 15.8205C14.0201 16.4435 13.6539 16.755 13 16.755C12.3461 16.755 11.9799 16.4435 11.2476 15.8205C10.1723 14.9057 9 13.6295 9 12.4131C9 10.0334 11.2001 9.14495 13 10.9832C14.7999 9.14495 17 10.0334 17 12.4131Z"/>
</mask>
<path d="M14.7524 15.8205L15.7315 16.9715L15.7315 16.9715L14.7524 15.8205ZM13 10.9832L14.0797 12.0404C13.7955 12.3307 13.4063 12.4944 13 12.4944C12.5937 12.4944 12.2045 12.3307 11.9203 12.0404L13 10.9832ZM11.2476 15.8205L12.2268 14.6696L12.2268 14.6696L11.2476 15.8205ZM13 16.755L13 15.2439L13 15.2439L13 16.755ZM13.7732 14.6696C14.2641 14.252 14.7286 13.7913 15.059 13.3388C15.4073 12.8619 15.4889 12.5549 15.4889 12.4131H18.5111C18.5111 13.4877 18.0066 14.427 17.4998 15.121C16.9753 15.8394 16.316 16.4742 15.7315 16.9715L13.7732 14.6696ZM15.4889 12.4131C15.4889 11.6884 15.1892 11.5481 15.1457 11.5318C15.0854 11.5093 14.6907 11.4164 14.0797 12.0404L11.9203 9.92606C13.1092 8.71175 14.7146 8.14402 16.2042 8.70104C17.7108 9.26438 18.5111 10.7582 18.5111 12.4131H15.4889ZM10.2685 16.9715C9.68397 16.4743 9.02473 15.8394 8.50016 15.121C7.9934 14.427 7.48889 13.4877 7.48889 12.4131H10.5111C10.5111 12.555 10.5927 12.8619 10.941 13.3388C11.2714 13.7913 11.7359 14.252 12.2268 14.6696L10.2685 16.9715ZM7.48889 12.4131C7.48889 10.7581 8.2892 9.26437 9.79578 8.70103C11.2854 8.14402 12.8908 8.71175 14.0797 9.92606L11.9203 12.0404C11.3093 11.4164 10.9146 11.5093 10.8543 11.5318C10.8108 11.5481 10.5111 11.6884 10.5111 12.4131H7.48889ZM15.7315 16.9715C15.0886 17.5185 14.3019 18.2661 13 18.2661L13 15.2439C13.0391 15.2439 13.045 15.2399 13.0356 15.2425C13.0274 15.2448 13.0385 15.2437 13.0807 15.2189C13.129 15.1905 13.2029 15.1401 13.3235 15.0447C13.446 14.9477 13.5844 14.8302 13.7732 14.6696L15.7315 16.9715ZM12.2268 14.6696C12.4156 14.8302 12.554 14.9477 12.6765 15.0447C12.797 15.1401 12.871 15.1905 12.9193 15.2189C12.9615 15.2437 12.9726 15.2448 12.9644 15.2425C12.955 15.2399 12.9609 15.2439 13 15.2439L13 18.2661C11.6981 18.2661 10.9114 17.5185 10.2685 16.9715L12.2268 14.6696Z" fill="#030104" mask="url(#path-2-outside-1_3_1784)"/>
</svg>
